<?xml version="1.0" standalone="no"?>
<!DOCTYPE svg PUBLIC "-//W3C//DTD SVG 20010904//EN"
 "http://www.w3.org/TR/2001/REC-SVG-20010904/DTD/svg10.dtd">
<svg version="1.0" xmlns="http://www.w3.org/2000/svg"
 width="999.000000pt" height="1080.000000pt" viewBox="0 0 999.000000 1080.000000"
 preserveAspectRatio="xMidYMid meet">

<g transform="translate(0.000000,1080.000000) scale(0.100000,-0.100000)"
fill="#000000" stroke="none">
<path d="M2515 8361 c-4 -7 0 -8 11 -4 11 4 15 3 10 -5 -3 -6 -2 -13 3 -16 5
-4 8 2 7 11 -3 20 -21 28 -31 14z"/>
<path d="M2500 8336 c0 -2 7 -7 16 -10 8 -3 12 -2 9 4 -6 10 -25 14 -25 6z"/>
<path d="M2416 8270 c-51 -55 -98 -148 -115 -231 -8 -38 -12 -374 -14 -1142
l-2 -1087 339 0 c318 0 338 -1 331 -17 -50 -131 -7 -268 112 -353 165 -118
523 -175 948 -150 354 20 589 79 757 189 120 78 184 166 212 289 l13 57 559 3
560 2 154 -261 c85 -144 159 -263 165 -265 5 -2 171 -3 368 -2 l359 3 -211
253 c-116 140 -214 258 -217 264 -4 7 155 9 482 7 461 -4 489 -3 488 14 0 9
-2 504 -4 1100 -2 595 -6 1045 -7 999 -2 -45 -8 -80 -12 -77 -5 2 -14 -2 -21
-10 -7 -8 -23 -15 -36 -15 -15 0 -24 -6 -24 -15 0 -10 -10 -15 -29 -15 -17 0
-33 -4 -36 -10 -3 -5 -15 -10 -26 -10 -10 0 -19 -7 -19 -15 0 -8 -6 -15 -14
-15 -7 0 -28 -3 -45 -6 -24 -5 -31 -3 -31 10 0 9 -8 16 -20 16 -11 0 -20 -4
-20 -10 0 -5 -9 -10 -21 -10 -12 0 -17 -4 -14 -11 4 -6 19 -7 36 -4 49 11 35
-21 -23 -50 -61 -31 -99 -68 -74 -73 32 -7 16 -24 -16 -19 -40 7 -121 -7 -126
-22 -2 -6 -21 -11 -43 -11 -26 0 -39 -4 -39 -14 0 -12 -47 -30 -76 -29 -6 0
-11 -7 -10 -15 1 -9 -12 -19 -34 -25 -19 -5 -39 -13 -45 -17 -5 -5 -44 -12
-85 -16 -52 -5 -69 -9 -55 -15 17 -6 17 -8 3 -8 -10 -1 -18 -5 -18 -11 0 -5
-18 -10 -40 -10 -29 0 -40 -4 -40 -15 0 -11 -11 -15 -40 -15 -29 0 -40 -4 -40
-15 0 -12 -16 -15 -80 -15 -64 0 -80 3 -80 15 0 11 11 15 40 15 23 0 40 5 40
11 0 8 -18 10 -61 5 -34 -3 -70 -6 -80 -6 -27 0 -23 -20 4 -21 18 -1 17 -2 -8
-10 -16 -5 -47 -8 -67 -7 -20 1 -40 -1 -45 -5 -4 -4 104 -6 240 -5 286 3 261
14 254 -107 l-3 -70 -2 83 -2 82 -264 0 -264 0 -104 -49 c-79 -36 -109 -46
-122 -39 -11 6 -21 6 -29 0 -7 -5 -27 -13 -45 -17 -18 -4 -35 -12 -38 -18 -3
-9 -74 -13 -242 -15 -141 -1 -238 -7 -240 -12 -5 -13 -162 -13 -162 0 0 6 -45
11 -112 12 -108 2 -110 2 -43 8 39 4 -1 5 -87 2 -141 -4 -158 -3 -158 12 0 12
-10 16 -39 16 -22 0 -41 -5 -43 -12 -3 -9 -16 -8 -51 6 -57 21 -113 19 -111
-6 1 -13 -10 -9 -51 18 -28 19 -87 50 -131 69 -43 19 -71 35 -62 35 9 0 38 -9
64 -21 30 -12 50 -16 52 -10 4 13 43 -5 54 -24 4 -7 21 -11 40 -9 18 2 28 0
22 -4 -9 -5 -8 -11 3 -21 12 -11 14 -11 12 0 -4 34 2 39 44 39 68 0 117 -11
117 -26 0 -11 17 -14 68 -14 37 0 96 -5 132 -10 117 -16 360 -24 360 -11 0 6
-17 11 -40 11 -22 0 -40 4 -40 8 0 9 -163 15 -317 13 -50 -1 -83 3 -83 9 0 5
-15 10 -33 10 -18 0 -60 7 -92 16 -41 10 -79 13 -121 8 -50 -5 -67 -3 -88 12
-15 9 -23 20 -17 23 5 4 -14 6 -42 6 -29 0 -56 1 -61 3 -4 3 -27 6 -50 7 -31
2 -36 1 -21 -6 17 -8 16 -9 -5 -4 -157 34 -283 40 -445 20 -33 -3 -31 -3 8 5
26 6 68 14 95 19 l47 9 -43 1 c-24 0 -50 7 -58 15 -7 8 -23 12 -34 9 -12 -3
-20 0 -20 7 0 9 -12 11 -42 6 -29 -4 -38 -3 -28 3 8 6 12 12 10 14 -18 17
-139 67 -162 67 -31 0 -63 14 -86 37 -7 7 -21 13 -31 13 -10 0 -29 9 -42 21
-13 11 -36 23 -51 26 -16 3 -28 11 -28 19 0 7 -9 16 -20 19 -11 3 -20 11 -20
16 0 6 -10 10 -22 9 -69 -6 -98 0 -98 20 0 14 -11 22 -40 30 -22 6 -40 15 -40
19 0 5 -11 12 -25 15 -25 6 -68 62 -59 77 2 4 23 5 47 3 l42 -5 -33 15 c-18 9
-41 15 -50 14 -37 -3 -52 3 -52 19 0 18 -36 53 -82 81 -16 9 -28 20 -28 24 0
4 -7 8 -15 8 -8 0 -15 -7 -15 -15 0 -8 7 -15 15 -15 8 0 15 -5 15 -10 0 -6 18
-17 40 -26 27 -11 40 -22 40 -35 0 -24 0 -24 -71 4 -32 12 -59 28 -59 35 0 6
-5 12 -11 12 -6 0 -20 11 -31 25 -11 14 -30 25 -44 25 -14 0 -24 6 -24 14 0 7
-8 16 -17 20 -10 3 -27 11 -38 18 -11 7 -22 14 -24 15 -2 1 4 10 13 19 15 14
21 15 42 4 13 -8 24 -17 24 -22 0 -5 5 -6 10 -3 11 7 -12 35 -28 35 -6 0 -13
8 -17 18 -6 16 -7 16 -19 0 -20 -27 -29 -22 -24 12 3 20 0 30 -9 30 -9 0 -13
-14 -13 -42 l0 -43 -24 40 c-24 38 -24 40 -5 43 23 4 25 18 3 26 -25 10 -34 7
-34 -9 0 -8 -7 -15 -15 -15 -8 0 -15 6 -15 14 0 8 -11 17 -24 20 -13 3 -26 15
-29 26 -3 11 -12 20 -21 20 -9 0 -16 4 -16 10 0 5 -8 6 -17 3 -15 -6 -16 -5
-3 9 13 13 16 14 23 2 4 -8 13 -14 19 -14 6 0 3 9 -7 20 -10 11 -13 20 -7 20
14 0 34 -35 25 -44 -3 -3 3 -6 15 -6 28 0 28 16 1 30 -11 7 -18 18 -15 25 12
33 -15 21 -58 -25z m5271 -462 c-3 -7 -5 -2 -5 12 0 14 2 19 5 13 2 -7 2 -19
0 -25z m-3834 -415 c-7 -2 -19 -2 -25 0 -7 3 -2 5 12 5 14 0 19 -2 13 -5z
m-76 -39 c-3 -3 -12 -4 -19 -1 -8 3 -5 6 6 6 11 1 17 -2 13 -5z m-40 -10 c-3
-3 -12 -4 -19 -1 -8 3 -5 6 6 6 11 1 17 -2 13 -5z m668 -14 c13 -6 15 -9 5 -9
-8 0 -22 4 -30 9 -18 12 -2 12 25 0z m-745 -10 c-8 -5 -19 -10 -25 -10 -5 0
-3 5 5 10 8 5 20 10 25 10 6 0 3 -5 -5 -10z m2275 -107 c-15 -8 -29 -12 -32
-10 -2 3 5 8 16 12 12 3 19 11 16 16 -3 5 2 6 11 2 14 -5 12 -8 -11 -20z
m-1275 -7 c0 -2 -7 -7 -16 -10 -8 -3 -12 -2 -9 4 6 10 25 14 25 6z m-27 -65
c-2 -3 -18 10 -36 29 l-32 34 36 -30 c20 -16 34 -31 32 -33z m1156 33 c3 -4
-2 -4 -11 -1 -10 4 -18 2 -18 -3 0 -5 8 -13 18 -19 15 -9 15 -10 -5 -8 -12 0
-20 4 -17 8 2 4 -6 15 -18 23 -21 15 -21 15 11 11 18 -2 36 -7 40 -11z m52 -1
c-18 -8 -36 -12 -39 -9 -3 4 0 6 7 6 7 0 10 3 8 8 -3 4 9 7 26 8 l32 1 -34
-14z m-131 -3 c0 -5 -2 -10 -4 -10 -3 0 -8 5 -11 10 -3 6 -1 10 4 10 6 0 11
-4 11 -10z m-6 -41 c-4 -8 1 -9 17 -5 13 4 4 -5 -21 -18 -25 -14 -49 -25 -55
-25 -5 0 6 8 25 19 19 11 31 19 27 20 -9 0 0 20 9 20 3 0 2 -5 -2 -11z m-1013
-46 c13 -16 12 -17 -3 -4 -10 7 -18 15 -18 17 0 8 8 3 21 -13z m842 -329 c27
-120 50 -220 51 -221 2 -2 115 51 252 117 137 66 252 120 257 120 4 0 7 -6 7
-13 0 -17 -509 -253 -520 -241 -5 5 -29 104 -55 219 -25 116 -51 218 -56 229
-8 14 -7 17 3 14 8 -3 31 -86 61 -224z m-1473 136 c63 -17 124 -64 165 -126
42 -63 91 -192 100 -264 4 -33 0 -25 -15 30 -60 219 -165 330 -315 330 -76 0
-146 -32 -197 -88 -46 -51 -73 -103 -109 -207 -35 -101 -38 -75 -3 31 73 225
217 338 374 294z m-403 -442 c-3 -7 -5 -2 -5 12 0 14 2 19 5 13 2 -7 2 -19 0
-25z m680 -20 c-3 -8 -6 -5 -6 6 -1 11 2 17 5 13 3 -3 4 -12 1 -19z m19 -624
c-27 -108 -98 -199 -196 -247 -163 -82 -415 -72 -508 21 -54 54 -78 158 -53
224 l9 23 377 4 378 4 -7 -29z"/>
<path d="M2750 8035 c0 -16 43 -31 60 -20 15 9 -14 35 -39 35 -12 0 -21 -6
-21 -15z"/>
<path d="M7660 7960 c0 -6 -12 -16 -27 -22 -27 -11 -28 -12 -5 -16 13 -2 30 2
38 8 16 14 19 40 4 40 -5 0 -10 -5 -10 -10z"/>
<path d="M7551 7889 c-51 -22 -45 -39 12 -32 31 4 37 9 37 29 0 13 -1 24 -2
23 -2 0 -23 -9 -47 -20z"/>
<path d="M7440 7826 c0 -8 -6 -16 -12 -19 -8 -2 -9 -8 -4 -13 5 -5 11 -4 13 4
3 6 11 12 19 12 8 0 14 7 14 15 0 8 -7 15 -15 15 -8 0 -15 -6 -15 -14z"/>
<path d="M3120 7814 c0 -12 45 -43 63 -44 26 0 20 23 -10 38 -29 13 -53 16
-53 6z"/>
<path d="M7257 7720 c-14 -11 -32 -20 -41 -20 -9 0 -16 -4 -16 -9 0 -5 -10
-11 -22 -14 -21 -3 -21 -4 -4 -12 10 -4 21 -4 25 1 3 5 29 15 56 22 55 15 71
25 61 41 -11 16 -30 13 -59 -9z"/>
<path d="M3315 7700 c22 -11 41 -20 42 -20 2 0 3 9 3 20 0 17 -7 20 -42 20
l-42 0 39 -20z"/>
<path d="M3390 7670 c20 -13 50 -13 50 0 0 6 -15 10 -32 10 -25 0 -29 -3 -18
-10z"/>
<path d="M7100 7640 c0 -5 11 -10 25 -10 14 0 25 5 25 10 0 6 -11 10 -25 10
-14 0 -25 -4 -25 -10z"/>
<path d="M3474 7620 c41 -21 59 -19 49 5 -3 10 -19 15 -46 15 l-41 0 38 -20z"/>
<path d="M7040 7610 c0 -5 9 -10 20 -10 11 0 20 5 20 10 0 6 -9 10 -20 10 -11
0 -20 -4 -20 -10z"/>
<path d="M3600 7567 c0 -38 8 -45 28 -25 8 8 15 8 28 -3 9 -8 25 -13 36 -11
10 2 21 -4 24 -12 8 -20 44 -21 44 -1 0 8 -7 15 -15 15 -17 0 -56 20 -66 34
-4 5 -12 5 -19 1 -6 -4 -22 3 -36 16 l-24 22 0 -36z"/>
<path d="M6937 7579 c-15 -12 -34 -18 -42 -15 -8 3 -15 1 -15 -4 0 -6 -7 -10
-16 -10 -8 0 -12 -4 -9 -10 3 -5 17 -10 30 -10 13 0 27 5 30 10 3 6 15 10 26
10 10 0 19 7 19 15 0 8 8 15 18 15 9 0 24 5 32 10 11 7 8 10 -15 10 -16 -1
-42 -10 -58 -21z"/>
<path d="M6775 7515 c-44 -20 -123 -45 -145 -45 -10 0 -22 -4 -25 -10 -11 -17
61 -11 130 11 36 12 65 26 65 30 0 5 12 9 28 10 24 0 25 1 7 9 -27 11 -26 12
-60 -5z"/>
<path d="M3840 7484 c0 -8 5 -12 10 -9 6 3 10 10 10 16 0 5 -4 9 -10 9 -5 0
-10 -7 -10 -16z"/>
<path d="M3890 7470 c0 -17 58 -40 102 -40 l43 1 -64 24 c-70 28 -81 30 -81
15z"/>
<path d="M3840 7451 c0 -9 30 -24 36 -18 2 1 -6 8 -16 15 -11 7 -20 8 -20 3z"/>
<path d="M6560 7430 c0 -5 18 -10 40 -10 22 0 40 5 40 10 0 6 -18 10 -40 10
-22 0 -40 -4 -40 -10z"/>
<path d="M3975 7410 c50 -3 81 -8 70 -9 -29 -5 60 -20 123 -21 28 -1 52 -6 52
-11 0 -5 5 -9 10 -9 19 0 10 17 -16 28 -14 7 -37 9 -52 6 -18 -4 -23 -3 -14 4
23 16 -23 22 -148 20 l-115 -2 90 -6z m148 -7 c-7 -2 -21 -2 -30 0 -10 3 -4 5
12 5 17 0 24 -2 18 -5z"/>
<path d="M6125 7339 c-16 -4 -48 -12 -70 -18 -22 -5 -79 -15 -127 -21 -93 -13
-111 -25 -54 -36 38 -7 60 1 50 18 -8 12 69 7 100 -7 14 -6 17 -5 12 3 -4 7
-1 13 6 13 45 5 57 8 88 24 19 10 46 22 60 26 24 7 24 8 -5 6 -16 0 -43 -4
-60 -8z m-5 -16 c-8 -3 -22 -11 -30 -17 -13 -10 -13 -9 -1 7 7 9 21 17 30 16
13 0 14 -1 1 -6z"/>
<path d="M4430 7295 c0 -5 53 -34 67 -37 5 -1 14 -8 21 -15 7 -7 19 -13 25
-13 16 0 -16 31 -35 34 -8 1 -27 9 -41 19 -27 17 -37 21 -37 12z"/>
<path d="M5985 7270 c4 -7 -3 -9 -22 -5 -23 5 -25 4 -10 -5 19 -12 61 -4 52
11 -4 5 -11 9 -16 9 -6 0 -7 -5 -4 -10z"/>
<path d="M5680 7259 c0 -8 -24 -9 -80 -4 -56 5 -80 4 -80 -4 0 -6 -17 -11 -40
-11 -22 0 -40 5 -40 10 0 6 -18 10 -40 10 -33 0 -40 -3 -40 -20 0 -19 5 -20
118 -15 239 11 282 16 282 31 0 10 -12 14 -40 14 -23 0 -40 -5 -40 -11z"/>
<path d="M5840 7240 c0 -5 7 -10 15 -10 8 0 15 5 15 10 0 6 -7 10 -15 10 -8 0
-15 -4 -15 -10z"/>
<path d="M5538 7203 c12 -2 32 -2 45 0 12 2 2 4 -23 4 -25 0 -35 -2 -22 -4z"/>
<path d="M1965 5140 c-12 -19 53 -68 118 -89 34 -11 92 -26 128 -32 l67 -12 6
-51 c3 -28 6 -150 6 -272 0 -258 16 -375 80 -571 60 -185 127 -296 224 -371
23 -18 42 -22 97 -22 37 0 79 4 93 10 28 10 286 34 381 34 34 1 66 6 73 13 7
7 20 13 28 13 8 0 14 7 14 15 0 12 16 15 80 15 65 0 80 -3 80 -15 0 -12 10
-15 44 -13 45 3 49 12 11 21 -11 3 -2 6 20 7 22 1 110 5 195 10 483 27 525 29
528 20 5 -13 162 -13 162 0 0 6 33 10 80 10 53 0 80 -4 80 -11 0 -8 28 -10
100 -5 189 12 307 15 260 7 -40 -7 -36 -8 37 -9 45 -1 83 2 85 7 4 11 558 -9
558 -21 0 -4 90 -8 200 -8 114 0 200 -4 200 -9 0 -5 18 -12 40 -16 22 -4 40
-11 40 -16 0 -5 17 -9 38 -9 33 0 287 -26 497 -51 44 -6 111 -11 148 -13 79
-4 93 -11 42 -20 -34 -7 -51 -36 -20 -36 8 0 15 7 15 15 0 10 10 15 34 15 19
0 40 2 48 3 7 2 9 2 4 -1 -4 -2 9 -12 30 -22 l39 -17 -37 -12 c-21 -7 -38 -17
-38 -22 0 -5 -12 -9 -27 -9 -41 0 -133 -42 -133 -61 0 -12 -14 -18 -56 -22
-31 -3 -63 -12 -73 -20 -46 -41 -94 -58 -156 -55 -48 2 -66 -1 -79 -15 -10 -9
-22 -17 -27 -17 -5 0 -9 -6 -9 -13 0 -19 -48 -35 -123 -40 -37 -3 -74 -11 -83
-18 -9 -7 -35 -13 -58 -14 -26 0 -50 -7 -60 -17 -20 -21 -48 -25 -196 -32 -63
-3 -116 -10 -118 -16 -2 -5 -21 -10 -43 -10 -31 0 -39 -4 -39 -19 0 -20 -13
-22 -225 -38 -99 -8 -99 -8 -40 -14 42 -4 20 -6 -77 -7 -94 -1 -138 -6 -140
-14 -3 -8 -125 -11 -478 -11 -353 0 -475 3 -478 11 -2 8 -41 12 -123 12 -99 0
-119 3 -119 15 0 12 -16 15 -80 15 -64 0 -80 3 -80 15 0 11 -11 15 -40 15 -22
0 -40 5 -40 10 0 6 -18 10 -40 10 -22 0 -40 5 -40 10 0 6 -18 10 -40 10 -22 0
-40 -5 -40 -10 0 -13 -73 -2 -78 11 -2 5 -20 9 -40 9 -43 1 -115 25 -120 40
-2 5 -21 10 -42 10 -21 0 -40 5 -42 11 -2 5 -38 13 -81 16 -64 5 -77 9 -77 23
0 22 -28 30 -102 30 -45 0 -58 3 -58 15 0 9 -9 15 -24 15 -33 0 -56 10 -56 24
0 19 -101 56 -153 56 -54 0 -87 13 -87 35 0 11 -12 15 -40 15 -29 0 -40 4 -40
15 0 11 -11 15 -40 15 -31 0 -40 4 -40 18 -1 10 -18 25 -45 38 l-45 21 -2 -41
c-1 -23 -5 63 -8 189 l-6 230 -2 -245 c-1 -187 2 -260 13 -308 18 -77 52 -145
67 -136 7 4 8 3 4 -5 -9 -14 61 -104 75 -95 5 3 8 0 7 -8 -2 -7 5 -12 14 -12
10 1 15 -2 12 -7 -8 -14 85 -68 154 -89 63 -20 108 -20 2356 -20 2533 0 2331
-5 2459 63 67 35 157 127 192 198 54 105 55 123 55 835 0 363 3 686 6 720 l7
61 66 12 c103 18 193 51 224 82 38 39 25 54 -20 23 -43 -29 -108 -50 -228 -71
-80 -15 -294 -17 -2020 -20 -1061 -2 -2279 1 -2705 6 -723 8 -781 10 -860 29
-87 21 -152 45 -182 70 -11 9 -18 10 -23 2z m1620 -667 c115 -44 202 -58 355
-58 143 0 231 13 344 51 38 13 73 21 79 17 5 -3 7 -2 4 4 -4 6 5 15 18 21 17
8 25 8 25 1 0 -6 5 -7 10 -4 6 4 8 10 6 14 -3 3 4 7 15 7 19 0 20 -1 2 -14
-34 -27 -178 -90 -238 -106 -201 -51 -438 -40 -613 31 -86 34 -125 58 -128 78
-2 14 0 15 19 2 12 -8 58 -28 102 -44z m3655 -33 c0 -20 -7 -20 -970 -20 -963
0 -970 0 -970 20 0 20 7 20 970 20 963 0 970 0 970 -20z m449 -262 c-1 -106
-4 -181 -6 -165 -2 15 -9 25 -14 22 -5 -4 -13 5 -19 19 -14 39 -23 31 -17 -14
5 -37 3 -40 -19 -40 -13 0 -24 -5 -24 -12 0 -6 -2 -9 -5 -7 -9 9 7 49 18 42 5
-3 7 -1 4 5 -4 5 -1 23 7 39 16 31 53 181 62 256 4 26 8 47 10 47 2 0 3 -87 3
-192z m-109 -216 c0 -5 -7 -17 -16 -28 -8 -10 -14 -14 -11 -9 2 6 7 18 10 28
7 17 17 23 17 9z m-1340 -182 c0 -5 -7 -7 -15 -4 -8 4 -15 8 -15 10 0 2 7 4
15 4 8 0 15 -4 15 -10z m95 -10 c-3 -5 -16 -10 -28 -9 -21 0 -21 1 -2 9 28 12
37 12 30 0z m-4023 -202 c-7 -7 -12 -8 -12 -2 0 14 12 26 19 19 2 -3 -1 -11
-7 -17z m3271 -395 c-13 -2 -33 -2 -45 0 -13 2 -3 4 22 4 25 0 35 -2 23 -4z
m-1586 -29 c-3 -3 -12 -4 -19 -1 -8 3 -5 6 6 6 11 1 17 -2 13 -5z"/>
<path d="M3470 4506 c0 -2 7 -7 16 -10 8 -3 12 -2 9 4 -6 10 -25 14 -25 6z"/>
<path d="M7657 4133 c4 -22 2 -25 -6 -13 -9 12 -11 11 -11 -7 0 -27 16 -38 24
-17 9 23 7 64 -3 64 -4 0 -6 -12 -4 -27z"/>
<path d="M5760 3800 c0 -5 18 -10 40 -10 22 0 40 5 40 10 0 6 -18 10 -40 10
-22 0 -40 -4 -40 -10z"/>
<path d="M2320 3730 c0 -30 2 -31 43 -29 63 2 117 -21 117 -48 0 -14 6 -23 15
-23 8 0 15 4 15 9 0 5 3 16 6 25 4 12 0 16 -15 16 -12 0 -21 5 -21 10 0 6 -9
10 -19 10 -11 0 -22 4 -25 9 -3 5 -21 12 -40 15 -19 4 -39 13 -46 21 -19 23
-30 18 -30 -15z"/>
<path d="M2558 3627 c-3 -16 0 -23 11 -23 54 -1 71 -5 71 -19 0 -11 11 -15 40
-15 25 0 40 5 40 13 0 12 -65 37 -99 37 -10 0 -24 7 -31 15 -17 21 -27 19 -32
-8z"/>
<path d="M6668 3623 c-16 -2 -28 -8 -28 -13 0 -4 -18 -11 -40 -15 -22 -4 -40
-10 -40 -15 0 -4 -11 -11 -25 -14 -14 -4 -25 -10 -25 -15 0 -12 68 -46 76 -38
4 4 0 7 -9 7 -11 0 -17 8 -17 25 0 18 5 25 20 25 11 0 20 -4 20 -10 0 -5 9
-10 20 -10 11 0 20 5 20 10 0 6 -9 10 -20 10 -31 0 -23 17 11 24 17 3 51 6 75
6 32 0 44 4 44 15 0 15 -21 17 -82 8z"/>
<path d="M2785 3540 c28 -11 60 -20 73 -20 13 0 22 -6 22 -15 0 -10 10 -15 33
-15 17 0 43 -3 57 -7 l25 -6 -20 20 c-13 12 -41 22 -75 26 -32 4 -57 13 -62
22 -6 10 -24 15 -56 15 l-47 -1 50 -19z"/>
<path d="M6430 3534 c-19 -7 -43 -13 -52 -13 -25 -1 -23 -21 2 -21 11 0 20 5
20 10 0 6 18 10 40 10 29 0 40 4 40 15 0 17 -3 17 -50 -1z"/>
<path d="M6320 3470 c0 -24 1 -24 -44 -5 -20 8 -36 11 -36 6 0 -5 -35 -17 -77
-26 -43 -9 -91 -25 -108 -36 l-30 -19 27 0 c14 0 28 -4 30 -9 2 -5 19 -11 38
-14 19 -2 27 -2 18 0 -24 6 -23 23 2 23 11 0 20 5 20 10 0 6 -9 10 -20 10 -11
0 -20 4 -20 9 0 12 78 25 145 24 49 -1 100 21 89 38 -10 17 -34 9 -34 -11z
m-200 -70 c0 -5 -9 -10 -20 -10 -11 0 -20 5 -20 10 0 6 9 10 20 10 11 0 20 -4
20 -10z"/>
<path d="M3000 3470 c0 -5 9 -10 19 -10 11 0 21 -5 23 -10 2 -7 17 -6 43 3
l39 14 -33 6 c-49 10 -91 8 -91 -3z"/>
<path d="M3120 3430 c0 -17 6 -20 40 -20 25 0 40 -5 40 -13 0 -28 152 -51 163
-24 3 9 -7 11 -39 8 -34 -2 -44 0 -44 12 0 9 -14 17 -39 21 -22 3 -41 10 -43
15 -1 4 -20 11 -40 15 -34 6 -38 5 -38 -14z"/>
<path d="M2291 3414 c0 -11 3 -14 6 -6 3 7 2 16 -1 19 -3 4 -6 -2 -5 -13z"/>
<path d="M7691 3416 c-3 -69 -122 -233 -206 -281 l-42 -25 -2448 0 -2448 0
-42 25 c-59 34 -137 123 -175 197 -26 51 -31 57 -25 28 23 -117 134 -256 253
-319 35 -18 62 -34 60 -36 -2 -2 -19 -6 -38 -8 -19 -3 -37 -6 -39 -6 -3 -1 4
-8 15 -16 32 -25 136 -53 225 -60 46 -4 89 -11 94 -15 6 -4 37 -11 70 -15 72
-10 717 -8 965 3 l175 7 -125 5 c-69 3 334 6 895 6 561 0 968 -2 905 -5 l-115
-6 190 -7 c105 -4 413 -10 685 -14 447 -5 501 -4 555 11 33 10 104 23 157 31
138 19 270 75 192 82 -50 4 -46 15 17 48 76 41 129 90 179 166 39 59 86 187
77 210 -3 8 -6 6 -6 -6z m-1708 -513 c-13 -2 -33 -2 -45 0 -13 2 -3 4 22 4 25
0 35 -2 23 -4z"/>
<path d="M5920 3380 c0 -5 -19 -10 -42 -10 -23 0 -39 -3 -35 -6 9 -9 157 7
157 17 0 5 -18 9 -40 9 -22 0 -40 -4 -40 -10z"/>
<path d="M3418 3363 c12 -3 22 -11 22 -19 0 -10 12 -14 40 -14 29 0 40 -4 40
-15 0 -12 17 -15 88 -16 48 0 96 -4 107 -9 18 -8 17 -9 -7 -9 -44 -1 -32 -21
12 -21 29 0 40 4 40 15 0 8 5 15 12 15 9 0 9 3 1 11 -6 6 -47 13 -92 16 -44 3
-81 10 -81 14 0 5 -18 9 -39 9 -22 0 -41 4 -43 9 -1 4 -30 10 -63 13 -33 3
-50 3 -37 1z"/>
<path d="M6088 3353 c7 -3 16 -2 19 1 4 3 -2 6 -13 5 -11 0 -14 -3 -6 -6z"/>
<path d="M5660 3329 c-34 -14 -36 -17 -14 -34 26 -20 34 -19 34 5 0 17 7 20
40 20 22 0 40 5 40 10 0 13 -67 12 -100 -1z"/>
<path d="M5538 3303 c12 -2 32 -2 45 0 12 2 2 4 -23 4 -25 0 -35 -2 -22 -4z"/>
<path d="M3815 3289 c-25 -5 -20 -7 30 -13 79 -10 90 -14 38 -15 -24 -1 -43
-5 -43 -11 0 -6 43 -8 120 -3 111 6 120 5 120 -12 0 -16 11 -17 160 -10 112 5
160 4 160 -3 0 -7 -31 -13 -77 -15 -43 -2 -8 -1 77 2 187 7 365 7 520 -1 63
-3 80 -3 38 -1 -43 2 -78 8 -78 13 0 5 37 10 83 12 45 2 -64 3 -243 3 -317 0
-589 13 -720 35 -36 6 -85 14 -110 18 -25 4 -58 5 -75 1z"/>
<path d="M5455 3291 c-11 -5 -91 -16 -177 -26 -115 -14 -158 -22 -158 -32 0
-17 79 -17 218 -1 105 12 135 27 60 29 -32 1 -21 5 42 14 47 7 80 13 73 14 -6
0 -17 3 -25 5 -7 3 -22 1 -33 -3z m-95 -41 c0 -5 -8 -10 -19 -10 -10 0 -46 -3
-80 -6 -41 -5 -61 -3 -61 4 0 10 36 16 123 20 20 1 37 -2 37 -8z"/>
<path d="M4898 3283 c12 -2 32 -2 45 0 12 2 2 4 -23 4 -25 0 -35 -2 -22 -4z"/>
<path d="M3858 3213 c12 -2 32 -2 45 0 12 2 2 4 -23 4 -25 0 -35 -2 -22 -4z"/>
<path d="M4558 3193 c45 -2 119 -2 165 0 45 1 8 3 -83 3 -91 0 -128 -2 -82 -3z"/>
<path d="M4173 2893 c9 -2 25 -2 35 0 9 3 1 5 -18 5 -19 0 -27 -2 -17 -5z"/>
<path d="M5338 2893 c34 -2 90 -2 125 0 34 2 6 3 -63 3 -69 0 -97 -1 -62 -3z"/>
<path d="M0 400 l0 -400 4995 0 4995 0 0 400 0 400 -4995 0 -4995 0 0 -400z
m2192 123 c23 -20 23 -57 1 -74 -15 -11 -16 -11 -5 1 27 31 11 72 -33 83 -19
4 -19 5 -1 6 11 0 28 -6 38 -16z m-69 -8 c-3 -9 -8 -14 -10 -11 -3 3 -2 9 2
15 9 16 15 13 8 -4z m-1760 -114 c22 -61 43 -108 47 -104 4 4 24 56 45 116 21
59 42 107 47 107 11 0 9 -5 -42 -149 -23 -64 -44 -107 -53 -109 -15 -3 -17 0
-67 143 -15 44 -31 88 -36 99 -5 13 -3 17 6 14 8 -2 32 -55 53 -117z m517 89
c0 -23 4 -30 20 -30 11 0 20 -4 20 -10 0 -5 -10 -10 -21 -10 -20 0 -21 -4 -17
-71 3 -55 8 -74 23 -85 23 -17 14 -29 -13 -15 -11 6 -22 25 -26 42 -10 51 -7
209 4 209 6 0 10 -13 10 -30z m515 16 c25 -11 33 -19 29 -30 -7 -19 -5 -19
-40 -1 -36 18 -55 19 -78 2 -28 -21 -9 -45 49 -62 87 -25 108 -74 54 -127 -29
-29 -33 -30 -90 -25 -68 6 -72 8 -64 29 5 13 12 14 40 5 50 -15 100 1 100 33
0 16 -8 28 -25 36 -87 40 -105 51 -108 67 -14 70 53 106 133 73z m105 -16 c0
-25 4 -30 25 -30 16 0 25 -6 25 -15 0 -9 -9 -15 -25 -15 -24 0 -25 -3 -25 -60
0 -55 2 -62 25 -72 14 -6 25 -15 25 -20 0 -18 -31 -20 -55 -4 -24 16 -25 20
-25 131 0 96 3 115 15 115 10 0 15 -10 15 -30z m482 -32 l3 -62 36 32 c20 18
45 32 55 32 14 0 9 -9 -21 -40 l-39 -40 42 -60 c40 -57 41 -60 20 -60 -16 0
-32 14 -53 45 -16 25 -33 45 -37 45 -5 0 -8 -20 -8 -45 0 -38 -3 -45 -20 -45
-19 0 -20 7 -20 130 0 122 1 130 20 130 16 0 19 -8 22 -62z m193 30 c1 -20 -2
-24 -11 -17 -8 7 -14 6 -17 -3 -3 -7 -6 2 -6 20 -1 27 3 33 17 30 11 -2 17
-13 17 -30z m-44 -35 c13 -16 12 -17 -3 -4 -17 13 -22 21 -14 21 2 0 10 -8 17
-17z m-1502 -19 c12 -15 21 -40 21 -55 0 -29 0 -29 -65 -29 -72 0 -83 -12 -44
-51 17 -17 30 -20 65 -16 43 4 59 -5 28 -17 -45 -17 -106 3 -123 41 -45 98 56
206 118 127z m191 16 c17 -11 10 -13 -40 -10 -47 2 -75 -28 -75 -80 0 -55 26
-80 82 -80 27 0 42 -4 38 -10 -9 -15 -78 -12 -102 5 -50 35 -50 135 0 170 24
17 74 20 97 5z m265 -13 c20 -16 28 -35 32 -69 5 -42 3 -50 -25 -78 -41 -41
-83 -41 -124 0 -28 28 -30 36 -25 78 9 82 84 119 142 69z m85 7 c0 -14 2 -14
22 0 24 17 38 20 38 9 0 -5 -14 -16 -30 -25 -29 -17 -30 -19 -30 -93 0 -43 -4
-75 -10 -75 -6 0 -10 40 -10 100 0 60 4 100 10 100 6 0 10 -7 10 -16z m537 1
c30 -21 44 -75 32 -120 -25 -88 -143 -88 -168 0 -20 72 20 135 84 135 17 0 40
-7 52 -15z m198 -5 c0 -10 -8 -14 -27 -12 -58 6 -91 -42 -67 -100 11 -28 36
-40 74 -35 12 1 20 -4 20 -13 0 -19 -48 -25 -85 -10 -63 26 -68 148 -6 179 31
15 91 9 91 -9z m5504 -83 c8 -26 17 -47 21 -47 4 0 13 21 21 47 8 25 20 48 26
50 8 3 4 -21 -11 -64 -13 -38 -29 -68 -36 -68 -7 0 -23 30 -36 68 -15 43 -19
67 -11 64 6 -2 18 -25 26 -50z m638 38 c2 -6 -9 -11 -23 -10 -38 0 -40 -20 -5
-35 69 -28 36 -101 -33 -74 -27 10 -18 22 17 20 38 -1 43 19 8 37 -36 18 -48
42 -31 62 14 17 61 17 67 0z m333 -20 c0 -35 16 -47 26 -20 4 8 13 15 22 15
13 0 13 -3 -2 -19 -16 -18 -16 -21 -1 -50 19 -38 8 -40 -22 -3 l-22 27 -1 -27
c0 -16 -4 -28 -10 -28 -6 0 -10 30 -10 70 0 40 4 70 10 70 6 0 10 -16 10 -35z
m580 32 c0 -4 -34 -104 -45 -136 -3 -8 -8 -11 -11 -8 -8 7 38 147 48 147 4 0
8 -2 8 -3z m70 -57 c0 -33 4 -60 10 -60 6 0 10 -4 10 -10 0 -5 -13 -10 -30
-10 -16 0 -30 5 -30 10 0 6 5 10 10 10 6 0 10 20 10 45 0 38 -2 43 -17 38 -16
-6 -16 -4 1 15 29 34 36 27 36 -38z m125 40 c13 -15 16 -30 12 -61 -12 -87
-97 -77 -97 11 0 63 47 92 85 50z m85 -40 c0 -33 4 -60 10 -60 6 0 10 -4 10
-10 0 -5 -13 -10 -30 -10 -16 0 -30 5 -30 10 0 6 5 10 10 10 6 0 10 20 10 45
0 38 -2 43 -17 38 -16 -6 -16 -4 1 15 29 34 36 27 36 -38z m120 41 c-5 -11
-15 -23 -20 -26 -6 -4 -1 -14 12 -25 20 -15 21 -21 10 -44 -11 -26 -34 -32
-66 -20 -28 11 -17 24 14 18 22 -5 31 -2 36 11 6 16 -3 28 -31 39 -6 2 -5 9 3
17 18 19 15 29 -8 29 -11 0 -20 5 -20 10 0 6 18 10 40 10 37 0 40 -2 30 -19z
m108 7 c21 -21 13 -45 -25 -77 l-38 -30 43 -1 c23 0 42 -4 42 -10 0 -5 -22
-10 -50 -10 -62 0 -65 15 -14 63 42 40 39 62 -8 53 -26 -5 -29 -4 -18 9 15 18
51 20 68 3z m112 -7 c-5 -11 -15 -23 -21 -26 -6 -5 -2 -13 11 -22 42 -29 8
-82 -43 -69 -37 9 -34 27 3 20 22 -5 31 -2 36 11 6 16 -3 28 -31 39 -6 2 -5 9
3 17 18 19 15 29 -8 29 -11 0 -20 5 -20 10 0 6 18 10 40 10 37 0 40 -2 30 -19z
m108 7 c21 -21 13 -45 -25 -77 l-38 -30 43 -1 c23 0 42 -4 42 -10 0 -5 -22
-10 -50 -10 -62 0 -65 15 -14 63 42 40 39 62 -8 53 -26 -5 -29 -4 -18 9 15 18
51 20 68 3z m-1937 -46 c-15 -5 -14 -59 2 -65 6 -2 9 -8 5 -12 -13 -14 -36 15
-40 53 -7 54 0 67 24 45 11 -10 15 -19 9 -21z m359 13 c9 -10 9 -15 1 -15 -15
0 -14 -57 2 -63 6 -2 9 -7 6 -11 -15 -17 -37 8 -41 47 -7 58 5 74 32 42z
m-532 -7 c23 -23 13 -38 -24 -38 -46 0 -41 -23 7 -30 27 -4 30 -7 16 -13 -28
-11 -44 -9 -61 9 -32 31 -14 84 29 84 12 0 26 -5 33 -12z m109 5 c14 -6 10 -9
-17 -13 -29 -4 -35 -9 -35 -30 0 -21 5 -26 33 -28 36 -4 34 -22 -3 -22 -28 0
-55 24 -55 50 0 22 25 50 45 50 7 0 22 -3 32 -7z m177 -9 c21 -20 20 -43 -1
-66 -20 -22 -46 -23 -67 -2 -31 30 -9 84 34 84 10 0 26 -7 34 -16z m86 6 c0
-4 -7 -10 -15 -14 -9 -3 -15 -19 -15 -41 0 -19 -4 -35 -10 -35 -5 0 -10 22
-10 49 0 45 2 49 25 49 14 0 25 -4 25 -8z m274 -6 c31 -30 9 -84 -34 -84 -24
0 -50 26 -50 50 0 24 26 50 50 50 10 0 26 -7 34 -16z m113 9 c14 -6 10 -9 -17
-13 -29 -4 -35 -9 -35 -30 0 -21 5 -26 33 -28 36 -4 34 -22 -3 -22 -28 0 -55
24 -55 50 0 22 25 50 45 50 7 0 22 -3 32 -7z m258 -2 c3 -5 -9 -11 -27 -13
-28 -2 -33 -7 -33 -28 0 -21 5 -26 33 -28 36 -4 34 -22 -3 -22 -28 0 -55 24
-55 50 0 37 67 69 85 41z m99 -7 c21 -20 20 -43 -1 -66 -20 -22 -46 -23 -67
-2 -31 30 -9 84 34 84 10 0 26 -7 34 -16z m113 4 c7 -5 14 -5 18 2 10 16 42
12 49 -6 10 -25 7 -84 -4 -84 -5 0 -10 18 -10 41 0 33 -3 40 -17 37 -13 -2
-19 -14 -21 -41 -4 -50 -22 -47 -22 4 0 36 -2 40 -22 37 -19 -2 -24 -10 -26
-40 -5 -55 -22 -46 -22 10 0 48 0 49 33 49 17 0 37 -4 44 -9z m-327 -78 c0 -5
-4 -10 -10 -10 -5 0 -10 5 -10 10 0 6 5 10 10 10 6 0 10 -4 10 -10z"/>
<path d="M2150 500 c0 -5 5 -10 10 -10 6 0 10 5 10 10 0 6 -4 10 -10 10 -5 0
-10 -4 -10 -10z"/>
<path d="M536 418 c-28 -39 -21 -48 39 -48 59 0 67 9 45 51 -15 27 -64 25 -84
-3z"/>
<path d="M986 424 c-50 -50 -21 -144 44 -144 48 0 80 50 66 104 -13 53 -75 75
-110 40z"/>
<path d="M1616 408 c-32 -46 -8 -118 39 -118 28 0 55 34 55 70 0 36 -27 70
-55 70 -13 0 -31 -10 -39 -22z"/>
<path d="M9094 365 c-9 -38 3 -75 26 -75 13 0 22 9 26 25 9 38 -3 75 -26 75
-13 0 -22 -9 -26 -25z"/>
<path d="M7525 340 c-3 -5 3 -10 14 -10 11 0 23 5 26 10 3 6 -3 10 -14 10 -11
0 -23 -4 -26 -10z"/>
<path d="M7804 336 c-10 -26 4 -48 28 -44 17 2 23 10 23 28 0 18 -6 26 -23 28
-13 2 -25 -3 -28 -12z"/>
<path d="M8164 336 c-10 -26 4 -48 28 -44 17 2 23 10 23 28 0 18 -6 26 -23 28
-13 2 -25 -3 -28 -12z"/>
<path d="M8634 336 c-10 -26 4 -48 28 -44 17 2 23 10 23 28 0 18 -6 26 -23 28
-13 2 -25 -3 -28 -12z"/>
</g>
</svg>
